<!DOCTYPE svg PUBLIC "-//W3C//DTD SVG 20010904//EN" "http://www.w3.org/TR/2001/REC-SVG-20010904/DTD/svg10.dtd">
<svg version="1.0" xmlns="http://www.w3.org/2000/svg" width="993px" height="1031px" viewBox="0 0 9930 10310" preserveAspectRatio="xMidYMid meet">
<g id="layer101" fill="#ff8e27" stroke="none">
 <path d="M4750 10295 c-41 -7 -102 -24 -135 -37 -75 -31 -4173 -2209 -4235 -2251 -191 -130 -331 -332 -365 -527 -23 -128 -23 -4522 0 -4650 34 -195 174 -397 365 -527 61 -41 4160 -2220 4234 -2250 171 -70 531 -70 702 0 74 30 4173 2209 4234 2250 191 130 331 332 365 527 23 128 23 4522 0 4650 -34 195 -174 397 -365 527 -61 41 -4160 2220 -4234 2250 -33 14 -98 31 -145 39 -104 17 -318 16 -421 -1z m964 -3830 c71 -26 130 -87 150 -156 32 -114 36 -197 36 -916 l0 -723 -115 0 -114 0 -3 773 c-3 755 -3 773 -23 807 -33 56 -75 72 -167 65 l-78 -5 0 84 c0 58 4 86 13 90 28 13 252 -2 301 -19z m-3864 -80 l0 -84 -132 -3 -133 -3 0 -980 0 -980 133 -3 132 -3 0 -84 0 -85 -250 0 -250 0 0 1155 0 1155 250 0 250 0 0 -85z m6730 -1070 l0 -1155 -250 0 -250 0 0 85 0 84 133 3 132 3 0 980 0 980 -132 3 -133 3 0 84 0 85 250 0 250 0 0 -1155z m-5445 660 c335 -59 586 -282 679 -607 28 -98 38 -181 37 -313 0 -198 -37 -352 -122 -501 -59 -106 -196 -243 -301 -302 -332 -187 -781 -154 -1076 79 -397 315 -420 1073 -43 1422 208 192 518 275 826 222z m1865 -22 c245 -96 371 -319 371 -653 0 -196 -34 -323 -121 -454 -88 -131 -213 -195 -394 -204 -159 -7 -257 23 -372 117 -34 28 -64 47 -68 44 -3 -4 -6 -150 -6 -325 l0 -318 -115 0 -115 0 0 900 0 900 115 0 115 0 0 -43 c0 -24 3 -46 6 -50 3 -3 27 10 54 29 91 66 202 95 345 91 94 -3 121 -8 185 -34z m2297 22 c90 -17 206 -54 255 -82 49 -27 140 -94 167 -123 70 -73 133 -210 155 -332 l7 -38 -120 0 -121 0 -5 28 c-23 111 -44 152 -119 230 -57 60 -136 105 -229 129 -84 22 -271 22 -356 0 -215 -57 -385 -242 -438 -477 -25 -110 -24 -387 1 -495 57 -248 226 -428 452 -481 52 -12 101 -15 199 -11 139 5 214 25 301 80 90 56 169 164 183 247 l6 35 123 3 123 3 -7 -28 c-25 -113 -45 -158 -109 -249 -77 -108 -234 -206 -401 -251 -87 -23 -118 -26 -259 -26 -142 0 -171 3 -258 26 -400 109 -617 425 -617 897 0 573 331 926 871 929 66 1 152 -6 196 -14z m-1397 -1695 l0 -120 -115 0 -115 0 0 120 0 120 115 0 115 0 0 -120z"/>
 <path d="M2837 5799 c-257 -35 -471 -241 -533 -514 -27 -117 -25 -360 5 -470 65 -244 246 -427 476 -481 92 -21 297 -15 369 11 118 41 161 69 252 159 147 146 192 263 201 521 9 275 -46 443 -198 595 -122 122 -237 172 -424 183 -44 3 -111 1 -148 -4z"/>
 <path d="M4681 5820 c-65 -14 -159 -61 -218 -110 l-53 -44 0 -323 0 -323 75 -75 c45 -45 100 -88 138 -107 58 -31 68 -33 167 -33 123 0 159 14 229 90 82 89 120 219 120 410 0 253 -82 433 -225 497 -53 23 -167 32 -233 18z"/>
 </g>
<g id="layer102" fill="#fffefe" stroke="none">
 <path d="M5402 6500 c-22 -9 -23 -14 -20 -107 l3 -98 78 3 c97 4 142 -10 165 -51 16 -29 17 -97 22 -812 l5 -780 130 0 130 0 3 720 c3 897 -1 942 -102 1041 -71 69 -120 86 -271 90 -66 2 -130 0 -143 -6z"/>
 <path d="M1335 6478 c-3 -7 -4 -535 -3 -1173 l3 -1160 265 0 265 0 0 100 0 100 -132 3 -133 3 0 964 0 964 133 3 132 3 0 100 0 100 -263 3 c-205 2 -264 0 -267 -10z"/>
 <path d="M8064 6477 c-3 -8 -4 -54 -2 -103 l3 -89 133 -3 132 -3 0 -964 0 -964 -132 -3 -133 -3 0 -100 0 -100 265 0 265 0 0 1170 0 1170 -263 3 c-213 2 -263 0 -268 -11z"/>
 <path d="M2763 5995 c-326 -59 -586 -280 -686 -582 -139 -421 -24 -869 285 -1109 292 -227 738 -257 1066 -72 106 59 261 215 321 322 85 149 122 303 122 501 1 233 -45 403 -153 564 -135 200 -342 334 -583 376 -105 18 -273 18 -372 0z m352 -227 c158 -32 320 -159 395 -312 62 -125 83 -243 77 -431 -9 -252 -55 -376 -191 -511 -80 -80 -128 -109 -242 -149 -72 -26 -277 -32 -369 -11 -226 53 -393 221 -456 461 -30 110 -32 353 -5 470 84 369 401 562 791 483z"/>
 <path d="M4655 5996 c-90 -26 -135 -45 -180 -76 l-44 -30 -3 42 -3 43 -130 0 -130 0 0 -915 0 -915 130 0 130 0 3 318 2 317 68 -51 c115 -88 201 -114 358 -107 186 9 317 79 412 221 89 134 123 260 123 457 0 218 -45 366 -151 497 -63 78 -147 140 -240 176 -64 26 -91 31 -185 34 -75 2 -126 -2 -160 -11z m258 -214 c132 -59 206 -229 206 -477 0 -235 -63 -394 -183 -458 -35 -19 -57 -22 -146 -22 -99 0 -109 2 -167 32 -34 18 -90 62 -127 98 l-66 66 0 320 0 319 33 30 c41 38 159 98 217 110 66 14 181 5 233 -18z"/>
 <path d="M6900 5991 c-174 -38 -303 -103 -419 -214 -184 -178 -271 -408 -271 -717 0 -231 46 -408 147 -564 115 -178 277 -294 490 -353 87 -23 116 -26 258 -26 141 0 172 3 259 26 216 58 393 193 481 367 26 53 59 176 50 190 -4 6 -61 10 -135 10 -118 0 -130 -2 -140 -19 -5 -11 -10 -29 -10 -41 0 -36 -56 -133 -102 -176 -55 -52 -84 -70 -166 -101 -89 -34 -290 -44 -396 -19 -222 52 -376 217 -432 461 -25 108 -26 385 -1 495 52 232 207 401 418 457 85 22 272 22 356 0 175 -46 294 -161 322 -310 14 -76 17 -77 158 -77 98 0 125 3 129 14 8 20 -30 167 -59 230 -52 111 -161 223 -285 289 -163 87 -447 121 -652 78z"/>
 <path d="M5661 4406 c-8 -9 -11 -55 -9 -137 l3 -124 130 0 130 0 3 124 c2 82 -1 128 -9 137 -9 10 -40 14 -124 14 -84 0 -115 -4 -124 -14z"/>
 </g>

</svg>