<?xml version="1.0" standalone="no"?>
<!DOCTYPE svg PUBLIC "-//W3C//DTD SVG 20010904//EN"
 "http://www.w3.org/TR/2001/REC-SVG-20010904/DTD/svg10.dtd">
<svg version="1.0" xmlns="http://www.w3.org/2000/svg"
 width="1178.000000pt" height="1178.000000pt" viewBox="0 0 1178.000000 1178.000000"
 preserveAspectRatio="xMidYMid meet">
<metadata>
Created by potrace 1.11, written by Peter Selinger 2001-2013
</metadata>
<g transform="translate(0.000000,1178.000000) scale(0.100000,-0.100000)"
fill="#000000" stroke="none">
<path d="M0 5887 l0 -3757 753 0 752 0 0 1500 c0 824 3 1496 7 1492 3 -4 117
-155 253 -337 135 -181 255 -341 265 -355 18 -24 284 -379 323 -431 32 -43
548 -733 567 -759 11 -14 182 -243 381 -509 331 -443 363 -483 375 -465 7 10
320 429 694 929 375 501 689 920 698 933 55 74 195 261 214 286 12 15 66 87
119 160 54 72 101 136 106 141 13 16 113 150 211 282 50 68 93 119 95 115 3
-4 5 -668 5 -1477 0 -808 1 -1478 1 -1487 1 -17 44 -18 755 -18 l753 0 0 2045
c1 1125 2 2048 5 2050 2 2 30 -22 63 -53 33 -31 110 -102 170 -157 61 -54 117
-106 126 -115 9 -8 36 -33 60 -54 50 -45 241 -220 309 -283 25 -23 55 -50 68
-61 13 -11 62 -56 109 -99 47 -43 97 -89 112 -102 14 -13 51 -47 81 -75 30
-28 78 -71 105 -96 28 -25 98 -88 155 -141 58 -53 127 -116 154 -140 26 -24
63 -57 80 -74 28 -25 150 -137 245 -223 14 -13 46 -42 72 -65 25 -23 87 -80
139 -127 119 -109 98 -89 225 -206 61 -55 130 -118 154 -140 24 -21 58 -52 75
-69 18 -16 72 -66 121 -110 48 -44 103 -93 120 -110 18 -16 72 -66 121 -110
127 -116 135 -123 179 -163 22 -21 85 -77 139 -127 55 -49 112 -101 126 -115
49 -45 124 -114 225 -205 55 -49 107 -97 115 -105 8 -8 60 -56 114 -105 55
-50 107 -97 116 -105 59 -54 226 -206 280 -255 36 -32 72 -65 81 -74 40 -41
185 -169 194 -172 7 -3 10 1234 10 3699 l0 3702 -30 1 c-186 3 -1448 0 -1452
-5 -3 -3 -6 -909 -6 -2013 1 -1104 -1 -2011 -4 -2016 -2 -4 -10 -1 -17 5 -36
35 -131 122 -216 198 -52 47 -108 99 -125 115 -17 17 -49 45 -71 64 -35 30
-191 172 -248 226 -12 11 -64 58 -116 105 -52 47 -97 87 -100 90 -3 4 -36 35
-75 70 -38 35 -95 86 -125 114 -31 28 -96 88 -145 132 -50 45 -102 93 -116
105 -14 13 -48 44 -75 69 -86 77 -235 214 -273 249 -20 18 -69 63 -110 100
-41 36 -88 80 -106 96 -17 17 -71 66 -120 110 -50 44 -99 89 -111 100 -11 11
-63 58 -114 105 -133 120 -129 117 -226 206 -49 44 -172 156 -274 249 -102 93
-188 176 -191 184 -3 9 -5 326 -5 704 l1 688 -20 -24 c-11 -14 -30 -38 -41
-53 -765 -1022 -1304 -1741 -1311 -1749 -5 -5 -521 -693 -1147 -1527 -626
-835 -1142 -1518 -1147 -1518 -5 0 -17 12 -26 27 -10 16 -63 88 -118 160 -55
73 -122 163 -150 200 -27 37 -56 74 -62 83 -7 8 -206 274 -443 590 -237 316
-436 582 -443 590 -6 8 -37 49 -67 90 -30 41 -59 81 -65 87 -5 7 -23 29 -38
50 -16 21 -112 148 -214 283 -101 135 -192 256 -201 270 -9 14 -84 114 -167
223 -82 109 -157 208 -165 220 -18 27 -103 140 -110 147 -3 3 -165 219 -360
480 -195 261 -357 477 -360 480 -3 3 -111 147 -240 320 -129 173 -267 358
-307 410 -40 52 -84 110 -98 129 l-25 34 0 -3756z"/>
</g>
</svg>
