<!DOCTYPE svg PUBLIC "-//W3C//DTD SVG 20010904//EN" "http://www.w3.org/TR/2001/REC-SVG-20010904/DTD/svg10.dtd">
<svg version="1.0" xmlns="http://www.w3.org/2000/svg" width="512px" height="512px" viewBox="0 0 5120 5120" preserveAspectRatio="xMidYMid meet">
<g id="layer101" fill="#343433" stroke="none">
 <path d="M1815 4576 c-77 -19 -170 -70 -160 -86 3 -5 31 3 63 18 52 24 68 27 173 27 113 0 117 -1 190 -37 80 -40 147 -99 184 -163 13 -22 294 -744 625 -1605 331 -861 612 -1581 625 -1600 14 -19 54 -64 90 -100 36 -35 65 -71 65 -80 0 -8 -9 -29 -20 -47 -28 -47 -8 -49 34 -3 57 63 51 88 -39 176 -41 41 -81 86 -89 101 -7 16 -285 732 -615 1593 -436 1134 -612 1580 -638 1618 -108 158 -304 234 -488 188z"/>
 <path d="M3300 924 c-154 -33 -318 -107 -401 -182 -55 -49 -64 -83 -27 -103 58 -31 294 26 452 109 83 43 170 121 164 148 -8 43 -75 53 -188 28z"/>
 </g>
<g id="layer102" fill="#c51c22" stroke="none">
 <path d="M1802 4425 c-29 -7 -64 -23 -78 -36 -37 -35 -57 -115 -52 -217 3 -84 8 -99 137 -437 74 -192 138 -354 142 -359 5 -6 18 -5 33 3 36 20 68 -1 64 -42 -2 -27 -8 -33 -33 -38 -19 -3 -29 -10 -27 -20 6 -28 245 -644 253 -653 6 -6 13 -6 21 2 22 22 48 14 48 -13 0 -18 -5 -25 -19 -25 -11 0 -23 -5 -26 -10 -4 -6 11 -56 32 -111 47 -126 44 -123 303 -189 148 -38 225 -84 362 -218 42 -41 71 -63 77 -57 13 14 -847 2244 -886 2298 -57 78 -173 138 -262 136 -20 0 -60 -6 -89 -14z m436 -697 c-2 -15 -10 -23 -23 -23 -13 0 -21 8 -23 23 -3 18 1 22 23 22 22 0 26 -4 23 -22z m-13 -500 c62 -55 33 -144 -52 -155 -35 -5 -45 -2 -67 20 -42 43 -32 127 17 147 38 15 75 11 102 -12z m319 -334 c19 -18 20 -28 6 -55 -21 -38 -80 -18 -80 28 0 38 47 55 74 27z"/>
 </g>
<g id="layer103" fill="#b75e4a" stroke="none">
 <path d="M1825 4431 c-7 -12 12 -24 25 -16 11 7 4 25 -10 25 -5 0 -11 -4 -15 -9z"/>
 <path d="M1667 4347 c-78 -73 -112 -147 -111 -247 1 -73 7 -89 264 -755 144 -374 271 -705 282 -735 32 -84 211 -261 238 -234 8 8 -11 70 -66 209 -4 11 -8 25 -9 30 0 6 -6 20 -13 32 -7 12 -46 109 -86 215 -41 106 -78 202 -82 212 -7 17 -4 17 24 -4 18 -13 37 -20 47 -16 21 8 10 26 -15 26 -11 0 -29 13 -41 30 -12 16 -25 27 -29 25 -4 -2 -20 28 -35 68 -16 40 -39 85 -52 100 -26 32 -27 36 -13 57 5 9 5 19 0 25 -5 7 -69 164 -142 351 l-132 339 -1 115 c0 98 3 121 21 158 12 23 18 44 14 47 -4 2 -32 -19 -63 -48z"/>
 <path d="M1985 3400 c-8 -12 20 -24 35 -15 6 3 8 11 5 16 -8 12 -32 12 -40 -1z"/>
 <path d="M2036 3311 c-10 -11 -13 -22 -8 -25 5 -3 17 3 26 13 10 11 13 22 8 25 -5 3 -17 -3 -26 -13z"/>
 <path d="M2070 3211 c-6 -12 -6 -22 -1 -26 6 -3 15 3 21 14 6 12 6 22 1 26 -6 3 -15 -3 -21 -14z"/>
 <path d="M2255 3157 c-3 -9 -7 -24 -10 -32 -8 -26 15 -27 27 0 8 19 9 28 0 37 -8 8 -13 7 -17 -5z"/>
 <path d="M2265 2651 c-6 -11 13 -26 22 -17 3 3 12 1 19 -5 8 -6 14 -6 18 0 4 5 1 13 -6 18 -20 12 -46 14 -53 4z"/>
 <path d="M2345 2371 c-3 -6 3 -15 14 -21 12 -6 22 -6 26 -1 3 6 -3 15 -14 21 -12 6 -22 6 -26 1z"/>
 <path d="M2416 2342 c-3 -6 -2 -13 4 -17 5 -3 10 -3 10 1 0 3 7 1 15 -6 8 -6 19 -9 25 -5 14 9 1 28 -15 21 -7 -2 -17 0 -23 6 -6 6 -12 6 -16 0z"/>
 <path d="M2525 2311 c-7 -12 12 -24 25 -16 11 7 4 25 -10 25 -5 0 -11 -4 -15 -9z"/>
 </g>
<g id="layer104" fill="#d88a73" stroke="none">
 <path d="M1681 4366 c-7 -8 -8 -17 -3 -20 6 -3 15 1 21 8 7 8 8 17 3 20 -6 3 -15 -1 -21 -8z"/>
 <path d="M2182 3758 c-18 -18 -15 -43 8 -63 17 -15 24 -16 45 -7 43 20 28 82 -20 82 -12 0 -26 -5 -33 -12z"/>
 <path d="M1961 3374 c-12 -15 -21 -30 -21 -34 0 -20 44 -60 66 -60 53 0 84 69 46 103 -28 25 -67 21 -91 -9z"/>
 <path d="M2118 3254 c-32 -17 -58 -62 -58 -99 0 -15 14 -40 33 -61 27 -30 40 -37 74 -38 50 -1 88 29 102 82 12 43 2 71 -39 105 -35 30 -71 34 -112 11z"/>
 <path d="M2476 2909 c-31 -25 -34 -61 -6 -89 28 -28 64 -25 89 6 27 34 26 50 -4 79 -29 30 -45 31 -79 4z"/>
 <path d="M2273 2650 c-30 -12 -40 -50 -17 -67 22 -16 46 -17 62 -1 30 30 -5 83 -45 68z"/>
 </g>
<g id="layer105" fill="#b0b0b2" stroke="none">
 <path d="M1755 4540 c-4 -6 -10 -8 -15 -5 -5 3 -11 1 -14 -4 -4 -5 -2 -12 3 -15 5 -4 12 -2 16 4 4 6 10 8 15 5 5 -3 11 -1 14 4 4 5 2 12 -3 15 -5 4 -12 2 -16 -4z"/>
 <path d="M2006 4541 c-4 -5 -2 -12 4 -16 5 -3 10 -3 10 1 0 3 6 1 14 -5 10 -8 16 -9 21 -1 3 5 4 11 1 11 -3 1 -9 2 -13 3 -5 1 -13 5 -20 9 -6 4 -14 3 -17 -2z"/>
 <path d="M2196 4432 c-3 -6 1 -15 8 -21 8 -7 17 -8 20 -3 3 6 -1 15 -8 21 -8 7 -17 8 -20 3z"/>
 <path d="M2266 2422 c-3 -6 1 -15 8 -21 8 -7 17 -8 20 -3 3 6 -1 15 -8 21 -8 7 -17 8 -20 3z"/>
 <path d="M2406 2341 c-4 -5 -2 -12 4 -16 5 -3 10 -3 10 1 0 3 6 1 14 -5 10 -8 16 -9 21 -1 3 5 4 11 1 11 -3 1 -9 2 -13 3 -5 1 -13 5 -20 9 -6 4 -14 3 -17 -2z"/>
 <path d="M3669 976 c-5 -23 -2 -46 5 -48 12 -4 15 41 4 48 -4 3 -8 3 -9 0z"/>
 <path d="M3325 931 c-7 -12 12 -24 25 -16 11 7 4 25 -10 25 -5 0 -11 -4 -15 -9z"/>
 <path d="M3435 931 c-7 -12 12 -24 25 -16 11 7 4 25 -10 25 -5 0 -11 -4 -15 -9z"/>
 <path d="M2780 888 c-43 -59 -83 -139 -109 -222 -21 -64 -21 -70 -6 -93 29 -43 78 -56 184 -49 102 6 126 17 114 50 -4 12 -7 32 -8 46 -1 21 -8 26 -41 30 -84 11 -37 79 107 155 38 20 67 40 64 46 -7 10 -88 -29 -151 -72 l-40 -28 -30 80 c-38 106 -45 111 -84 57z"/>
 <path d="M3275 920 c-3 -6 -11 -8 -16 -5 -5 4 -15 3 -21 -2 -7 -4 -16 -8 -20 -8 -5 0 -8 -3 -8 -7 0 -5 0 -11 0 -14 0 -4 6 -1 13 5 8 6 17 8 20 5 3 -3 12 -2 19 2 7 5 18 9 23 9 14 0 19 19 7 23 -6 2 -13 -2 -17 -8z"/>
 <path d="M3145 880 c-4 -6 -10 -8 -15 -5 -5 3 -11 1 -14 -4 -4 -5 -2 -12 3 -15 5 -4 12 -2 16 4 4 6 10 8 15 5 5 -3 11 -1 14 4 4 5 2 12 -3 15 -5 4 -12 2 -16 -4z"/>
 <path d="M3616 861 c-10 -11 -13 -22 -8 -25 5 -3 17 3 26 13 10 11 13 22 8 25 -5 3 -17 -3 -26 -13z"/>
 <path d="M3287 749 c-21 -11 -35 -24 -32 -29 4 -6 23 -1 46 10 22 12 37 25 34 30 -7 12 -2 13 -48 -11z"/>
 <path d="M3140 693 c-8 -3 -26 -10 -40 -16 -14 -6 -30 -9 -37 -8 -6 1 -14 -3 -17 -8 -3 -5 -15 -7 -25 -4 -10 3 -22 0 -26 -6 -9 -16 22 -26 39 -12 7 6 16 8 19 5 3 -3 11 -2 18 2 7 4 22 9 34 10 36 4 76 24 70 34 -7 11 -12 11 -35 3z"/>
 </g>
<g id="layer106" fill="#cdced0" stroke="none">
 <path d="M1760 4541 c-88 -28 -140 -60 -196 -117 -100 -102 -149 -252 -127 -386 7 -40 226 -623 618 -1642 l607 -1578 2 -92 c0 -50 5 -90 10 -89 5 1 17 26 26 55 18 59 50 123 88 181 l26 39 30 -79 c17 -43 35 -84 39 -90 5 -9 24 -1 65 25 32 20 78 45 102 56 25 10 54 22 65 27 84 37 187 61 265 62 75 2 85 0 88 -16 8 -37 -129 -137 -243 -178 -11 -4 -36 -14 -55 -22 -48 -21 -152 -47 -187 -47 -16 0 -36 -6 -45 -13 -14 -11 -14 -16 3 -56 19 -42 20 -43 57 -36 60 11 220 65 312 104 180 77 333 190 366 268 8 18 14 35 14 38 0 4 -36 44 -80 90 -45 47 -89 104 -100 127 -10 24 -286 739 -614 1590 -356 927 -606 1565 -624 1590 -39 56 -119 131 -168 156 -105 53 -241 66 -344 33z m261 -153 c68 -31 116 -78 145 -143 13 -27 208 -531 434 -1120 227 -588 415 -1077 418 -1085 3 -8 -31 19 -75 61 -144 135 -209 169 -406 213 -107 24 -130 31 -177 57 -8 5 -31 17 -50 28 -61 33 -164 150 -188 211 -11 30 -137 360 -281 733 -143 372 -263 697 -266 721 -15 94 39 227 117 289 88 70 221 85 329 35z"/>
 </g>

</svg>